<svg xmlns="http://www.w3.org/2000/svg" version="1.1" xmlns:xlink="http://www.w3.org/1999/xlink" xmlns:svgjs="http://svgjs.dev/svgjs" width="1440" height="560" preserveAspectRatio="none" viewBox="0 0 1440 560"><g mask="url(&quot;#SvgjsMask1000&quot;)" fill="none"><rect width="1440" height="560" x="0" y="0" fill="#1e3266"></rect><path d="M1512 560L0 560 L0 324.52Q30.84 283.36, 72 314.2Q125.91 248.11, 192 302.01Q243.84 233.85, 312 285.69Q399.49 253.18, 432 340.67Q507.13 295.81, 552 370.94Q555 301.94, 624 304.93Q652.31 261.24, 696 289.54Q746.61 268.15, 768 318.77Q852.73 283.5, 888 368.23Q909.78 270.01, 1008 291.8Q1052.32 264.12, 1080 308.44Q1167.39 275.84, 1200 363.23Q1254.87 298.1, 1320 352.97Q1335.35 296.32, 1392 311.67Q1466.35 266.01, 1512 340.36z" fill="#182f5d"></path><path d="M1464 560L0 560 L0 446.41Q19.82 346.24, 120 366.06Q190.7 316.76, 240 387.47Q328.46 355.93, 360 444.39Q397.59 361.98, 480 399.57Q522.18 369.75, 552 411.93Q587.24 327.17, 672 362.41Q738.98 309.39, 792 376.37Q858.29 322.66, 912 388.95Q988.74 345.69, 1032 422.42Q1081.66 352.09, 1152 401.75Q1233.7 363.45, 1272 445.15Q1315.8 368.95, 1392 412.75Q1402.26 351.01, 1464 361.27z" fill="#25467d"></path><path d="M1464 560L0 560 L0 501.78Q38.42 468.2, 72 506.62Q83.47 446.09, 144 457.55Q214.17 407.72, 264 477.89Q316.13 458.01, 336 510.14Q336.27 438.41, 408 438.69Q460.38 371.06, 528 423.44Q589.63 413.06, 600 474.69Q643.14 397.84, 720 440.98Q746.65 395.63, 792 422.28Q872.07 382.35, 912 462.41Q990.61 421.02, 1032 499.64Q1083.1 430.74, 1152 481.84Q1228.36 438.2, 1272 514.56Q1322.63 445.19, 1392 495.83Q1394.2 426.03, 1464 428.23z" fill="#356cb1"></path><path d="M1536 560L0 560 L0 508.74Q28.61 465.35, 72 493.95Q167.29 469.24, 192 564.53Q236.51 489.04, 312 533.56Q328.87 478.42, 384 495.29Q450.04 441.33, 504 507.36Q575 506.37, 576 577.37Q592.95 522.32, 648 539.26Q670.85 490.11, 720 512.95Q811.14 484.09, 840 575.23Q853.85 517.08, 912 530.92Q964.01 462.93, 1032 514.95Q1127.88 490.83, 1152 586.71Q1157.68 520.39, 1224 526.07Q1291.49 473.56, 1344 541.04Q1387.53 512.57, 1416 556.09Q1483.12 503.21, 1536 570.33z" fill="white"></path></g><defs><mask id="SvgjsMask1000"><rect width="1440" height="560" fill="#ffffff"></rect></mask></defs></svg>